IKResults
version=1
nRows=8
nColumns=40
inDegrees=yes

Units are S.I. units (second, meters, Newtons, ...)
Angles are in degrees.

endheader
time	pelvis_tilt	pelvis_list	pelvis_rotation	pelvis_tx	pelvis_ty	pelvis_tz	hip_flexion_r	hip_adduction_r	hip_rotation_r	knee_angle_r	knee_angle_r_beta	ankle_angle_r	subtalar_angle_r	mtp_angle_r	hip_flexion_l	hip_adduction_l	hip_rotation_l	knee_angle_l	knee_angle_l_beta	ankle_angle_l	subtalar_angle_l	mtp_angle_l	lumbar_extension	lumbar_bending	lumbar_rotation	arm_flex_r	arm_add_r	arm_rot_r	elbow_flex_r	pro_sup_r	wrist_flex_r	wrist_dev_r	arm_flex_l	arm_add_l	arm_rot_l	elbow_flex_l	pro_sup_l	wrist_flex_l	wrist_dev_l
      0.25000000	     17.89089232	      2.78503608	     -9.02829561	     -0.37234434	      0.93093289	      0.98319148	    -12.92203716	     -9.52306412	     -3.76234105	    -62.57679770	     -1.09217116	    -10.78524100	    -14.98046323	     17.08966915	     -0.55861045	     -4.23323625	     16.43526705	    -25.80001473	     -0.45029520	      8.16006891	      8.02529369	     -5.80886213	    -24.72328371	     -8.66943412	      3.10808699	     -4.77331985	    -15.03349021	      2.74035330	     49.01702571	     89.95437384	      0.00000000	      0.00000000	     -8.94553913	      8.31453410	      8.27547822	     12.73477301	     89.95437384	      0.00000000	      0.00000000
      0.26000000	     18.13579311	      2.38727581	     -9.10814566	     -0.35822527	      0.93396652	      0.98325733	    -11.61665301	     -8.40613222	     -2.67513095	    -62.82484394	     -1.09650038	     -8.16121892	    -14.66563122	     16.15095261	     -2.36185105	     -4.22902350	     15.94392340	    -24.90478806	     -0.43467055	      8.92890589	      7.97361750	     -5.65526261	    -25.04581368	     -8.33069933	      3.10088300	     -5.00530839	    -14.70080757	      3.04596441	     46.60094702	     89.95437384	      0.00000000	      0.00000000	     -7.52371809	      8.47868491	      7.76095540	     12.48017896	     89.95437384	      0.00000000	      0.00000000
      0.27000000	     18.69599644	      1.94263316	     -9.05669337	     -0.34385803	      0.93736970	      0.98263115	    -10.81742257	     -7.55999324	     -2.22060586	    -62.67794303	     -1.09393647	     -5.71687388	    -13.96092012	     14.86163456	     -4.66083196	     -4.28557600	     15.45351039	    -23.70390175	     -0.41371113	      9.31096417	      8.46309547	     -5.35785098	    -25.75702905	     -7.82820174	      2.99029375	     -5.47754705	    -14.52896302	      3.19150534	     44.67085935	     89.95437384	      0.00000000	      0.00000000	     -6.13717564	      8.55184839	      7.29889142	     12.47533220	     89.95437384	      0.00000000	      0.00000000
      0.28000000	     18.63372029	      1.58745178	     -8.88645513	     -0.32991600	      0.93968149	      0.98196421	     -9.20453461	     -6.67093484	     -1.90965490	    -62.53111715	     -1.09137388	     -3.55690164	    -14.29047152	     14.26350563	     -5.99200972	     -4.17612863	     15.11607688	    -23.00591049	     -0.40152889	      9.79221205	      8.27465279	     -5.28427395	    -25.78699938	     -7.32092596	      2.76245428	     -5.76106098	    -14.25000278	      3.44123047	     42.24379474	     89.95437384	      0.00000000	      0.00000000	     -4.85766948	      8.67193875	      6.98899786	     12.65739307	     89.95437384	      0.00000000	      0.00000000
      0.29000000	     18.51541570	      1.14712080	     -8.70885289	     -0.31619567	      0.94176924	      0.98133141	     -7.58197895	     -5.65736038	     -1.57449149	    -62.14323067	     -1.08460398	     -1.33920442	    -14.55838812	     13.68017574	     -7.27325717	     -3.95229391	     14.82739264	    -22.24606274	     -0.38826704	     10.20919885	      8.20608056	     -5.20469594	    -25.77873496	     -6.71265092	      2.61443914	     -6.12839750	    -14.05118420	      3.66356308	     39.96606727	     89.95437384	      0.00000000	      0.00000000	     -3.64016705	      8.79152508	      6.81745615	     13.19859918	     89.95437384	      0.00000000	      0.00000000
      0.30000000	     18.66272734	      0.62205164	     -8.26311343	     -0.30180524	      0.94416781	      0.98037735	     -6.55284934	     -4.63025113	     -1.64690051	    -61.16998555	     -1.06761765	      0.45771401	    -14.84411949	     13.05217431	     -9.00131604	     -3.68096420	     14.10412055	    -21.27195771	     -0.37126570	     10.47620921	      8.33533743	     -5.10037016	    -25.99990060	     -5.92514980	      2.24017413	     -6.63452562	    -13.90510600	      3.91339566	     37.83904330	     89.95437384	      0.00000000	      0.00000000	     -2.51297484	      8.89661430	      6.91676947	     13.86460858	     89.95437384	      0.00000000	      0.00000000
      0.31000000	     18.37715093	      0.33742605	     -7.99918244	     -0.28794987	      0.94544177	      0.97942985	     -4.80923270	     -3.91987215	     -1.69681627	    -60.31844769	     -1.05275551	      1.94361966	    -15.45322654	     12.76090161	    -10.04642610	     -3.53698864	     14.11161930	    -20.46479569	     -0.35717807	     10.98866354	      8.21222736	     -5.09418769	    -25.74351047	     -5.37998324	      2.02811936	     -7.15502218	    -13.76607442	      4.06976120	     35.72018480	     89.95437384	      0.00000000	      0.00000000	     -1.33285565	      9.01979291	      6.85009538	     14.56388711	     89.95437384	      0.00000000	      0.00000000
      0.32000000	     18.13009893	      0.01709837	     -7.63274289	     -0.27409055	      0.94658217	      0.97840844	     -3.23946473	     -3.17355355	     -1.81010613	    -59.15364199	     -1.03242582	      3.11452034	    -16.07216557	     12.60572260	    -11.16162142	     -3.31572001	     13.87691483	    -19.68745583	     -0.34361093	     11.28793530	      8.01389894	     -5.10167661	    -25.54123179	     -4.75922890	      1.71483559	     -7.72263291	    -13.64139707	      4.21136425	     33.69863121	     89.95437384	      0.00000000	      0.00000000	     -0.29682828	      9.14412522	      6.95773491	     15.57167339	     89.95437384	      0.00000000	      0.00000000
